<svg xmlns="http://www.w3.org/2000/svg" width="24" height="24" viewBox="0 0 24 24" fill="none">
  <rect x="2" y="2" width="20" height="20" rx="5" stroke="#C4460A" stroke-width="2"/>
  <path d="M12 4C7.58 4 4 7.58 4 12c0 3.38 2.06 6.3 5.03 7.56-.07-.64-.13-1.63.03-2.33.14-.62.96-4.08.96-4.08s-.25-.49-.25-1.21c0-1.14.66-1.98 1.48-1.98.7 0 1.04.52 1.04 1.15 0 .7-.45 1.75-.68 2.72-.19.81.4 1.47 1.2 1.47 1.44 0 2.44-1.86 2.44-4.07 0-1.68-1.14-2.95-3.21-2.95-2.34 0-3.81 1.75-3.81 3.71 0 .67.19 1.15.49 1.52.14.16.16.23.11.41-.04.13-.12.45-.15.58-.05.19-.2.26-.37.19-1.06-.43-1.55-1.6-1.55-2.9 0-2.15 1.83-4.77 5.47-4.77 2.95 0 4.77 2.15 4.77 4.46 0 3.08-1.68 5.38-4.15 5.38-.83 0-1.62-.45-1.89-.95l-.52 2c-.19.71-.56 1.42-.88 1.97.66.2 1.36.31 2.08.31 4.42 0 8-3.58 8-8s-3.58-8-8-8z" fill="#C4460A"/>
</svg>
