<svg width="300" height="300" viewBox="0 0 300 300" fill="none" xmlns="http://www.w3.org/2000/svg">
  <!-- Frappe-style squircle background -->
  <path d="M214.286 0H85.7143C38.3756 0 0 38.3756 0 85.7143V214.286C0 261.624 38.3756 300 85.7143 300H214.286C261.624 300 300 261.624 300 214.286V85.7143C300 38.3756 261.624 0 214.286 0Z" fill="#D6336C"/>

  <!-- Scroll glyph (Phosphor Icons "scroll", MIT licensed, restyled white) -->
  <g transform="translate(66,66) scale(0.656)" fill="white">
    <path d="M96,104a8,8,0,0,1,8-8h64a8,8,0,0,1,0,16H104A8,8,0,0,1,96,104Zm8,40h64a8,8,0,0,0,0-16H104a8,8,0,0,0,0,16Zm128,48a32,32,0,0,1-32,32H88a32,32,0,0,1-32-32V64a16,16,0,0,0-32,0c0,5.74,4.83,9.62,4.88,9.66h0A8,8,0,0,1,24,88a7.89,7.89,0,0,1-4.79-1.61h0C18.05,85.54,8,77.61,8,64A32,32,0,0,1,40,32H176a32,32,0,0,1,32,32V168h8a8,8,0,0,1,4.8,1.6C222,170.46,232,178.39,232,192ZM96.26,173.48A8.07,8.07,0,0,1,104,168h88V64a16,16,0,0,0-16-16H67.69A31.71,31.71,0,0,1,72,64V192a16,16,0,0,0,32,0c0-5.74-4.83-9.62-4.88-9.66A7.82,7.82,0,0,1,96.26,173.48ZM216,192a12.58,12.58,0,0,0-3.23-8h-94a26.92,26.92,0,0,1,1.21,8,31.82,31.82,0,0,1-4.29,16H200A16,16,0,0,0,216,192Z"/>
  </g>
</svg>
